<?xml version="1.0" encoding="UTF-8" standalone="no"?>
<!DOCTYPE svg PUBLIC "-//W3C//DTD SVG 1.1//EN" "http://www.w3.org/Graphics/SVG/1.1/DTD/svg11.dtd">
<svg width="100%" height="100%" viewBox="0 0 1600 581" version="1.1" xmlns="http://www.w3.org/2000/svg" xmlns:xlink="http://www.w3.org/1999/xlink" xml:space="preserve" xmlns:serif="http://www.serif.com/" style="fill-rule:evenodd;clip-rule:evenodd;">
    <g>
        <rect x="1395" y="478" width="21" height="22" style="fill:rgb(244,245,247);"/>
        <path d="M1475,394C1483.12,394.1 1493.53,396.43 1499.99,401.53C1511.39,410.53 1512.29,426.49 1506.69,439C1499.03,456.12 1480.09,471.27 1465,482L1515,482L1515,499L1437,499L1437,490C1437,488.15 1436.86,484.96 1437.57,483.3C1438.92,480.13 1448.84,473.31 1452,470.74C1462.94,461.84 1476.69,450.43 1483.48,438C1490.55,425.08 1485.56,412.05 1470,411.09C1456.99,410.29 1448.13,418.07 1440,420L1440,400C1455,396.58 1458.16,393.81 1475,394Z" style="fill:rgb(244,245,247);"/>
        <path d="M1158,136C1158,133.94 1157.74,130.39 1158.99,128.7C1160.06,127.25 1163.33,126 1165,125.23L1182,118.67C1208.89,109.71 1233.89,107.67 1262,108L1272,108.91C1304.46,111.28 1337.23,122.01 1358.54,148C1365.1,156.01 1370.24,165.16 1373.48,175C1383.17,204.44 1377.86,246.45 1356.83,270C1341.1,287.62 1322.93,294.59 1301,301L1324,306.72C1339.25,311.26 1353.44,319.04 1364.91,330.17C1404.45,368.51 1394.9,439.82 1356,474.83C1330.16,498.09 1295.96,507.61 1262,510.09L1252,511C1223.92,511.32 1194.99,510.27 1168,501.66C1163.22,500.13 1146.49,494.93 1143.99,491.37C1142.75,489.58 1143,486.13 1143,484L1143,417C1154.33,423.36 1161.41,428.78 1174,434.13C1196.81,443.82 1217.69,445.28 1242,445C1255.32,444.84 1272.26,440 1283,432.08C1302.31,417.83 1309.28,390.13 1297.12,369C1294.41,364.29 1290.08,359.76 1286,356.18C1272.56,344.41 1246.65,338.03 1229,338L1183,338L1183,272C1208.55,272 1244.22,274.5 1267,262.1C1273.68,258.46 1280.53,252.49 1284.53,246C1294.38,230.04 1292.92,204.35 1280.68,190.01C1276.02,184.56 1269.66,180.59 1263,178.06C1238.92,168.93 1206.95,173.8 1184,184.31L1158,199L1158,136Z" style="fill:rgb(244,245,247);"/>
        <path d="M829.999,115L837.489,116.02L843.719,133L859.979,187L898.719,317L918.579,383L924.999,409L927.999,425L934.879,392L953.279,330L990.419,205L1007.72,147L1017,115L1109,115L1074.34,216L1034.66,332L1006.67,413L982.999,482C981.689,485.94 977.269,501.03 974.489,502.98C972.709,504.23 969.149,504 966.999,504L883.999,504C881.959,504 878.369,504.26 876.699,503.01C874.489,501.35 870.159,486.58 868.809,483L857.669,450L844.999,413L743.999,115L829.999,115Z" style="fill:rgb(244,245,247);"/>
    </g>
    <path d="M772.999,199.89L766.579,198.21C764.879,198.22 750.159,203.78 743.649,195.79C740.429,191.83 740.019,182.53 742.449,178.1C745.549,172.46 748.829,175.16 748.999,166C749.219,153.75 749.669,148.62 763.999,149.02C767.269,149.11 770.019,149.41 772.609,151.65C774.809,153.54 775.519,156.24 778.209,157.4C783.159,159.54 794.529,158.01 799.999,158.05L811.999,158.05L818.999,159.12L826.999,158.04C834.769,157.67 837.389,158.88 839.419,158.87L844.999,158.05L856.999,158.05C866.939,158.02 866.589,159.81 869.419,159.79C871.749,159.77 873.129,158.18 878.999,158.02C886.419,157.81 887.209,158.92 889.999,159.04L899.999,158L911.999,159.04L920.999,158.02C934.939,157.64 942.369,165.06 941.979,179C941.799,185.79 939.819,195.64 932.979,198.52C928.959,200.21 921.299,200.42 916.999,199.67C914.539,199.24 912.249,197.93 909.719,198.23C907.789,198.46 906.049,199.58 901.999,199.79L828.999,199.79C825.619,199.99 817.229,198.58 815.129,199.79C811.709,201.15 811.459,204.84 808.609,207.35C804.699,210.79 797.919,210 792.999,210L796.269,214.84L818.999,214.84C819.489,212.43 819.819,210.44 821.649,208.39C825.119,204.5 843.179,200.25 845.999,215C849.589,215.03 861.179,215.5 863.899,214.4C867.629,212.89 868.089,208.99 873.019,206.45C877.129,204.34 885.139,205.15 889.999,205.05C894.139,204.97 897.419,205.03 900.899,207.65C904.689,210.51 904.869,214.03 910.019,214.93L940.999,214.93C945.819,214.95 950.879,214.8 953.989,219.21C957.049,223.54 956.029,237.33 955.999,243C955.989,245.24 956.039,247.84 955.349,249.98C952.419,259.08 940.549,257.04 932.999,257C925.519,256.96 924.919,255.77 921.999,255.7L905.089,257.6C902.439,258.64 900.469,261.52 897.959,263.37C894.029,266.26 890.769,266.99 885.999,266.99C881.859,266.99 878.519,266.64 875.389,263.61C873.229,261.52 872.499,258.77 869.789,257.6C867.289,256.52 850.029,257.03 845.999,256.99L778.999,256.99L771.579,256.05L757.999,257C745.999,256.85 741.749,252.96 742.009,241L742.729,235C742.849,229.37 740.819,223.93 742.729,218C746.589,207.98 755.579,206.02 764.999,206L785.999,205L784.999,199.89L772.999,199.89ZM522.989,296C526.689,291.27 531.629,281.82 536.999,279.74C543.289,277.31 554.619,280.78 560.999,282.37C571.189,284.92 583.229,284.95 583.999,298C589.959,292.75 590.009,286.12 596.999,281.74C603.639,277.58 620.429,282.09 627.999,283.6C630.729,284.15 636.839,285.05 638.999,286.17C646.629,290.13 645.069,296.69 648.429,298.98C650.249,300.22 653.829,300 655.999,300L690.999,300C695.819,300.03 699.219,300.03 702.569,304.11C706.509,308.89 706.029,318.07 705.999,324C705.979,328.38 705.709,334.2 703.269,337.96C701.509,340.66 698.719,342.23 697.599,345.09C697.139,346.26 696.379,359.4 696.529,361C696.729,363.1 697.349,365.02 697.999,367C698.869,363.76 699.299,360.78 701.429,358.04C705.009,353.45 717.289,348.79 722.999,345.69L748.999,329.33C757.799,323.4 775.949,309.52 782.709,301.99C794.749,288.59 793.419,282.02 807.999,282L832.999,282C835.429,282 838.739,281.87 840.999,282.74C844.639,284.14 847.489,288.1 849.999,291C854.469,296.17 858.909,301.24 863.999,305.83C879.069,319.44 896.079,330.76 913.999,340.22L927.999,347C928.059,340.19 928.539,331.63 935.999,328.74C938.589,327.74 944.059,328 946.999,328L946.999,301C947.049,297.03 947.479,291.4 949.729,288.04C952.699,283.63 956.089,283.07 960.999,283L987.999,283C992.909,283.07 996.299,283.63 999.269,288.04C1001.88,291.93 1001.99,298.44 1002,303L1002,328L1007,328L1007,303C1007.07,297.14 1007.68,290.27 1013.04,286.74C1016.09,284.73 1019.53,285.01 1023,285L1135,285C1137.43,285 1140.75,284.87 1143,285.74C1150.79,288.75 1150.99,297.97 1151,305L1151,365C1162.9,365.31 1164.87,372.55 1165,383C1165.06,388.48 1165.37,396.94 1163.66,402C1160.92,410.07 1158.02,405.87 1158,418C1157.96,437.09 1159.38,467.21 1149.64,484C1147.35,487.94 1141.71,493.72 1138,496.36C1127.42,503.9 1109.5,503.14 1097,503C1088.33,502.89 1081.06,501.7 1079,492C1069.55,496.86 1061.66,506.95 1050,502.01C1045.73,500.2 1042.28,496.21 1039,493.01C1037.48,491.53 1034.86,488.5 1032.58,488.58C1030.97,488.63 1026.53,491.72 1025,492.68C1020.53,495.49 1015.37,498.74 1010,499.21C1001.36,499.98 996.589,493.95 991.419,488C985.289,480.93 976.829,472.93 984.429,463.04C985.989,461.01 987.989,459.54 989.999,458L973.999,462.98L951.999,469.42C945.809,471.16 938.669,473.14 933.109,468.57C927.689,464.12 924.589,444.23 923.999,437L903.999,438L924.859,465C929.269,471.18 933.299,477.01 930.649,485C929.169,489.47 926.119,491.67 921.999,493.56C916.289,496.17 893.259,505.09 887.999,505.39C883.969,505.62 880.179,504.58 877.209,501.78C873.819,498.58 873.529,495.25 867.999,495.15L836.999,497.91L800.999,500.09L790.999,501L768.999,502L755.999,503L748.999,503C740.049,503.11 727.949,506.82 721.699,497.96C718.489,493.41 717.789,482.84 715.999,477C713.219,483.42 706.029,497.64 699.999,500.84C693.669,504.19 684.489,501.13 677.999,499.29C656.469,493.17 646.999,488.61 626.999,480C626.999,486.46 627.699,495.85 622.769,500.77C616.919,506.63 598.289,505.04 589.999,505C584.769,504.97 578.149,504.7 574.229,500.77C569.159,495.71 569.999,485.66 569.999,479C557.529,486.1 538.899,492.72 524.999,496.71L500.999,502.47C488.98,503.51 486.29,495.24 482.6,486C480.58,480.95 478.86,477.46 478,472C462.86,482.03 449.92,464.64 437,458C435.26,473.04 417.1,470 406,470C406,477.59 407.3,494.15 402.57,499.89C396.71,507.01 375.94,505.1 367,505C361.54,504.93 355.15,504.42 351.43,499.89C346.7,494.15 348,477.59 348,470C336.86,470 317.76,473.23 316,458C306,464.32 288.16,481.95 276,474.27C271.64,471.51 265.63,463.32 262.37,459C258.93,454.44 254.34,449.91 253.79,444C252.69,432.27 265.83,426.92 274,420.99C295.11,405.67 310.6,389.05 327,369L283,369C278.57,368.94 272.65,368.49 269.11,365.57C264.58,361.85 264.07,355.46 264,350C263.9,341.02 261.82,322.92 271.02,318.17C273.69,316.79 277.06,317 280,317L348,317C348,308.55 346.29,289.15 352.23,283.23C355.25,280.2 358,280.06 362,280L392,280C403.88,280.17 405.88,287.68 406,298L406,317L477,317C484.87,317.11 489.05,319.82 490,328C499.66,323.46 516.099,304.79 522.989,296ZM698.999,380.41C700.869,383.32 705.059,384.2 706.939,391C709.239,399.31 707.199,410.3 707.539,414L709.559,423C711.099,432.54 710.359,443.35 705.999,452L716.999,454.95C720.989,454.76 719.789,452.1 729.999,452C732.859,451.97 745.779,451.12 747.669,449.98C750.879,448.03 753.889,441.5 754.999,438C747.369,438 727.089,438.9 720.999,436.3C717.739,434.91 715.089,432.26 713.699,429C711.459,423.75 711.969,412.94 712.149,407C712.019,403.32 713.149,396.84 712.149,394C709.889,386.05 700.099,377.31 698.999,367C697.819,369.99 697.209,377.64 698.999,380.41ZM940.209,377.02C937.659,378.51 931.219,389.07 930.679,392C930.189,394.58 931.539,399.11 931.919,402L931.919,420L946.999,417L946.999,376C944.789,376.03 942.179,375.87 940.209,377.02ZM816.999,346L825.999,346L821.999,340L816.999,346ZM829.409,438.99C828.079,438.13 826.539,438.03 824.999,438.03C818.879,438.03 817.239,442.77 815.999,448L834.999,447C833.819,444.37 831.899,440.62 829.409,438.99ZM460,369L427,369C430.24,375.98 436.61,381.62 442,387C451.43,396.43 474.9,416.53 487,421C489.01,411.56 494.44,410.03 502.999,410L502.999,379C496.07,376.64 491.51,370.49 487,365C476.74,370.17 471.03,369 460,369ZM122.37,277C120.69,273.71 118.41,265.37 116.49,263.58C114.14,261.4 104.57,260.19 101,259.35C92.27,257.28 84.59,253.83 77,249.09C71.61,245.72 68.43,242.43 64,238C41.69,215.69 36.65,189.47 37,159C37.34,129.88 48.81,101.76 72,83.52C92.44,67.44 115.32,66.72 140,67C154.55,67.17 170.59,71.9 183,79.46C198.84,89.11 211.14,105.66 217.31,123L223,145L223,127C223.05,116.48 224.53,108.17 237,108L268,108C272.33,108.02 275.46,107.92 278.77,111.23C282.92,115.36 282.99,122.51 283,128L283,190C283.04,193.23 283.85,202.26 285.31,204.69C289.64,212.58 303.55,207.78 306.4,204.69C308.33,202.29 307.99,198.76 308,196L308,126C308.15,113.54 310.83,108.02 324,108L354,108C358,108.06 360.75,108.2 363.77,111.23C367.92,115.36 367.99,122.51 368,128C368.01,136.58 367.06,160.19 369,167C370.27,139.77 392.53,115.6 418,108.04C429.99,104.47 442.63,104.86 455,105C479.61,105.29 500.069,116.96 509.999,140C513.669,133.56 514.639,130.61 520.039,125C539.349,104.95 562.389,104.96 587.999,105C595.779,105.01 606.449,106.54 613.999,108.48C616.899,109.22 623.909,112.22 626.419,111.56C631.549,110.21 627.489,108.01 640.999,108C640.999,100.15 639.619,81.95 644.429,76.11C647.499,72.38 650.519,72.07 654.999,72L686.999,72C691.479,72.07 694.499,72.38 697.569,76.11C702.379,81.95 700.999,100.15 700.999,108L722.999,108C725.429,108 728.749,107.87 730.999,108.74C740.699,112.49 739.099,127.53 738.999,136C738.939,140.43 738.489,146.35 735.569,149.89C729.679,157.05 709.909,155 700.999,155L700.999,199C701.019,202.76 701.249,209.62 703.729,212.74C707.619,217.2 713.399,214.26 717.999,212.74C726.769,210.31 735.879,212 738.179,222C738.839,224.89 738.959,227.07 738.999,230C739.079,236.8 739.949,249.55 735.569,254.89C731.459,259.92 723.109,260.67 716.999,261.57C701.069,263.93 675.849,263.99 661.999,254.89C652.709,248.79 646.229,239.72 643.479,229L640.999,218C639.509,223.57 638.599,227.9 635.519,233C633.169,236.89 630.199,239.82 626.999,243C605.099,264.73 569.669,265.75 540.999,260.58C533.889,259.29 527.859,258.05 520.999,255.66L510.999,251.7C508.459,251.32 495.6,256.22 492,257.28C482.65,260.04 465.7,262.98 456,263C427.06,263.05 396.68,256.65 379.36,231C371.72,219.68 371.91,213.81 368,202L368,241C367.94,245.43 367.49,251.35 364.57,254.89C360.85,259.42 354.46,259.93 349,259.78L321,259.78C312.01,258.1 312.25,254.55 308.72,254.53L293,260.52C276.22,264.84 254.61,263.79 241,251.82C227.52,239.96 223.03,222.4 223,205C222.99,198.6 223.7,189.99 222,184C220.95,206.74 208.28,229.28 191,243.68C187.34,246.73 181.18,250.48 177,253C180.95,254.03 184.84,255.63 189,255.39C197.71,254.89 199.59,250.68 211,251.02C227.17,251.49 224.11,271.74 224,283C223.97,285.2 223.35,289.74 224.77,291.4C226.57,293.53 232.34,292.99 235,293C248.86,293.07 249.98,301.22 250,313L250,480C249.99,486 249.94,493.42 244.89,497.57C240.85,500.9 234.01,500.99 229,501L211,501C207.41,500.95 202.2,500.56 199.02,498.84C195.08,496.72 194.02,493.49 191.63,492.02C189.59,490.77 186.34,491 184,491L119,491C108.76,491.19 112.64,496.7 104,499.66C98.12,501.67 81.98,501.01 75,501C58.33,500.97 54.03,496.67 54,480L54,311C54.07,305.14 54.68,298.27 60.04,294.74C63.09,292.73 66.53,293.01 70,293L135,293C130.58,288.48 125.25,282.64 122.37,277ZM101,170C101.09,177.14 102.75,186.39 105.45,193C109.69,203.36 117.57,210.47 129,211.47C143.38,212.74 152.71,201.29 156.92,189C159.92,180.26 160.1,169.2 160,160C159.82,144.62 154.85,123.63 138,118.56C134.07,117.66 129.04,117.88 125,118.56C102.05,123.84 100.78,150.85 101,170ZM113,416L113,440L192,440L192,416L113,416ZM531.999,203C543.239,209.75 563.899,220.04 576.999,214C558.699,208.71 553.439,210.67 532.999,202L531.999,203ZM635.999,154C634.319,158.91 633.729,162.17 628.979,165.27L620.999,169C627.649,173.76 634.279,180.49 637.689,188L640.999,196L640.999,155L635.999,154ZM113,344L113,365L192,365L192,344L113,344ZM430,202C441.32,221.2 477.16,215.72 490,202L430,202ZM511.999,199L525.999,197L516.999,190L511.999,199ZM569.999,154L594.999,159.37C599.169,160.4 603.789,162.4 607.999,161C598.909,155.83 579.879,147.61 569.999,154ZM449.98,152.17C446.02,150.13 436.74,150.69 433.31,153.7C431.64,155.16 431.6,156.06 431,158L455,157C453.42,154.92 452.41,153.43 449.98,152.17Z"/>
    <g>
        <g>
            <path d="M1137,289L1137,360L1019,360L1019,289L1137,289ZM1046,332L1046,342L1109,342L1109,332L1046,332ZM1046,307L1046,317L1109,317L1109,307L1046,307Z" style="fill:white;"/>
            <path d="M1087,458C1079.86,465.12 1072.26,471.49 1064,477.28C1061.43,479.08 1057.28,482.53 1054,481.55C1051.22,480.72 1042.84,471.75 1039,469C1043.01,463.86 1051.72,457.6 1057,452.83C1066.69,444.07 1078.6,430.41 1085,419C1081.97,419 1076.68,418.63 1074.09,420.02C1071.35,421.5 1062.08,434.4 1058.83,438C1049.81,447.99 1039.69,457.18 1029,465.35L1014,475.55C1011.98,476.72 1009.43,478.28 1007,477.59C1003.83,476.68 995.169,466.03 992.999,463C1010.68,451.44 1030.88,436.46 1043,419L1033,419.93L1022,428.83L1004,442L996.999,433C978.809,439.31 958.729,446.77 939.999,451L936.399,433L935.659,425.43L941.999,422.35L958.999,419L958.999,355L939.999,355L939.999,332L958.999,332L958.999,287L987.999,287L987.999,332L1004,332L1004,355L987.999,355L987.999,410L1004,405L1005,412L1025,390L1005,390L1005,369L1151,369L1151,390L1080,390L1056.32,391.02L1050,399L1144,399C1144,417.32 1145.14,435.89 1142.08,454C1140.4,463.96 1137.52,473.4 1128,478.59C1119.22,483.36 1100.36,482 1090,482L1087,458ZM1087,458C1092.45,458 1104.62,458.93 1108.95,456.15C1112.95,453.57 1113.92,449.37 1114.74,445L1117,419C1111.33,420.86 1109.92,426.19 1106.94,431L1097.33,445L1087,458Z" style="fill:white;"/>
            <path d="M917.999,391L917.999,417L872.999,417C883.809,427.81 893.679,439.05 903.199,451C908.109,457.16 915.229,465.75 917.999,473L884.999,485C883.399,481.73 880.269,475.69 876.909,474.07C874.839,473.14 870.419,473.86 867.999,474.07L844.999,476.01L822.999,477.91L799.999,479.09L788.999,480L772.999,481L748.999,482L730.999,483L725.999,456L743.999,455.09L753.819,453.98L761.199,444L775.999,417L723.999,417L723.999,391L917.999,391ZM818.999,417L811.629,417.99L805.579,428L791.999,453L858.999,449L840.999,425L853.999,417L818.999,417Z" style="fill:white;"/>
            <path d="M728.999,348.69C742.229,341.52 762.259,327.68 773.999,318.2C781.179,312.39 788.459,306.06 794.409,299C796.529,296.48 802.999,287.59 805.319,286.57C807.599,285.58 823.389,285.99 826.999,286C837.649,286.02 836.959,289.35 844.089,297C848.469,301.7 853.119,306.24 857.999,310.42C874.139,324.25 886.329,332.59 904.999,342.69L930.999,355L915.999,381L881.999,364L881.999,375L760.999,375L760.999,363C748.759,369.55 737.219,377.39 723.999,382L709.999,358L728.999,348.69ZM801.999,331.83L780.999,350L859.999,350L838.999,331.72L820.999,313L801.999,331.83Z" style="fill:white;"/>
            <path d="M570.999,290C569.649,295.52 566.429,299.56 562.999,304L582.999,304L590.789,302.98L603.209,285.4L611.999,285.4L632.999,290L624.999,304L691.999,304L691.999,323L617.999,323L617.999,334L682.999,334L682.999,349L617.999,349L617.999,359L683.999,359L683.999,374L617.999,374L617.999,385L693.999,385L693.999,404L612.999,404L612.999,414L695.999,414L695.999,435L659.999,435L638.999,436L661.999,444.31C675.089,448.97 693.419,454.44 706.999,457L692.999,482C663.769,476.12 638.959,463.89 612.999,450L612.999,484L581.999,484L581.999,450L556.999,462.69C542.159,469.51 512.889,479.76 497,482L488,458C510.639,451.44 534.139,446.55 554.999,435L498,435L498,414L581.999,414L581.999,404L514.999,404L514.999,352L504.999,357.68L498.58,352.99L487,339C506.069,324.23 529.099,304.2 540.999,283L570.999,290ZM546.999,323L546.999,334L586.999,334L586.999,323L546.999,323ZM546.999,374L546.999,385L586.999,385L586.999,374L546.999,374ZM546.999,349L546.999,359L586.999,359L586.999,349L546.999,349Z" style="fill:white;"/>
            <path d="M389,285L389,322L474,322L474,349L397,349L419.17,378C438.51,399.42 459.39,415.23 484,430C480.58,435.95 469.07,452.04 464,456L433,433.57C414.49,418.17 403.8,405.52 389,387L389,424L421,424L421,450L389,450L389,485L357,485L357,450L324,450L324,424L357,424L357,387L332.91,414.96C319.54,428.69 295.91,447.95 279,457C274.22,451.78 264.79,440.59 263,434C271.85,429.68 284.4,419.55 292,413C309.55,397.88 325.39,380.66 339.12,362L348,349L273,349L273,322L357,322L357,285L389,285Z" style="fill:white;"/>
            <path d="M233,298L233,481L201,481L201,471L96,471L96,481L63,481L63,298L233,298ZM96,324L96,370L201,370L201,324L96,324ZM96,396L96,445L201,445L201,396L96,396Z" style="fill:white;"/>
        </g>
        <g>
            <path d="M683.999,77L683.999,113L721.999,113L721.999,135L683.999,135L683.999,190C684.019,204.4 686.289,219.82 703.999,220.91C710.889,221.33 715.639,218.71 721.999,217L721.999,240C704.729,242.33 680.789,246.9 664.999,236.87C653.909,229.82 650.149,216.48 649.999,204L649.999,135L632.999,135L632.999,113L649.999,113L649.999,77L683.999,77Z" style="fill:rgb(230,230,230);"/>
            <path d="M529.999,211.69C539.619,216.97 551.969,220.87 562.999,221C569.489,221.07 578.599,220.45 583.979,216.49C589.709,212.28 592.059,205.89 586.719,200.21C581.619,194.78 568.259,192.86 560.999,191.4C538.449,186.86 516.639,180.57 516.009,153C515.309,121.88 546.639,110.04 572.999,110C584.429,109.98 595.969,110.76 606.999,114.04C609.499,114.78 616.559,116.77 618.009,118.7C619.259,120.37 618.999,123.96 618.999,126L618.999,148L604.999,140.26C594.289,134.75 580.119,130.18 567.999,132.67C565.409,133.2 561.299,134.23 558.999,135.44C551.749,139.25 546.949,146.73 553.389,153.79C558.179,159.03 571.079,161.17 577.999,162.42C599.519,166.32 624.369,172.19 624.989,199C625.089,203.63 624.779,207.53 623.429,212C615.399,238.65 582.499,243.04 558.999,243C549.289,242.98 536.359,240.82 526.999,238.14C524.319,237.37 517.609,235.48 515.989,233.3C514.739,231.62 514.999,228.06 514.999,226L514.999,203C520.549,205.12 524.829,208.85 529.999,211.69Z" style="fill:rgb(230,230,230);"/>
            <path d="M498,225C498,227.14 498.23,230.71 496.98,232.49C495.43,234.7 488.69,236.47 486,237.28C476.6,240.11 463.78,242.88 454,243C421.28,243.38 388.7,235.9 378.74,200C376.4,191.53 375.9,182.74 376,174C376.2,157.05 381.96,139.28 394.17,127.17C414.91,106.6 461.94,103 483.99,123.17C500.359,138.16 500,161.66 500,182L410,182C410.47,187.75 411.71,193.7 414.04,199C424.07,221.79 454.65,223.35 475,215.77L498,204L498,225ZM458.62,138.14C449.54,128.22 428.41,128.81 419.1,138.14C412.82,144.38 410.4,154.37 410,163L466,163C465.92,154.68 464.44,144.57 458.62,138.14Z" style="fill:rgb(230,230,230);"/>
            <path d="M266,113L266,182C266.03,187.56 267.41,200.33 270.09,205C277.29,217.58 293.54,216.2 305,211.38C308.43,209.95 314.15,207.21 315.98,203.9C317.2,201.69 317,198.48 317,196L317,113L351,113L351,240L317,240L317,222C308.92,227.94 301.22,234.5 292,238.69C270.38,248.51 242.48,243 234.77,218C230.99,205.71 232,190.82 232,178L232,113L266,113Z" style="fill:rgb(230,230,230);"/>
            <path d="M64.3,217C44.65,193.95 42.01,153.12 50.29,125C53.15,115.31 57.71,105.73 64.3,98C82.35,76.83 104.4,71.69 131,72C138.68,72.09 149.69,74.11 157,76.52C196.3,89.47 207.43,125.61 207,163C206.85,175.87 202.81,192.51 197.03,204C191.14,215.7 182.97,224.25 172,231.3C163.45,236.8 158.99,235.93 159.36,242.02C159.47,243.97 160.7,248.23 161.57,250C167.05,261.16 182.27,262.34 193,259.98L207,256L207,274C207,276.04 207.24,279.77 205.98,281.42C204.46,283.41 199.4,283.85 197,284.25C187.15,285.85 181.91,286.11 172,286C145.64,285.69 125.6,270.6 125,243C101.12,243 80.13,235.56 64.3,217ZM87.15,184C92.08,202.44 105.06,216.53 125,216.99C145.6,217.45 158.42,205.98 164.92,187C168.57,176.36 169.13,164.16 169,153C168.68,125.81 156.33,97.3 125,98.15L121,98.15C83.05,104.59 79.08,153.75 87.15,184Z" style="fill:rgb(230,230,230);"/>
        </g>
        <path id="選択範囲--1" serif:id="選択範囲 #1" d="M64.3,217C44.65,193.95 42.01,153.12 50.29,125C53.15,115.31 57.71,105.73 64.3,98C82.35,76.83 104.4,71.69 131,72C138.68,72.09 149.69,74.11 157,76.52C196.3,89.47 207.43,125.61 207,163C206.85,175.87 202.81,192.51 197.03,204C191.14,215.7 182.97,224.25 172,231.3C163.45,236.8 158.99,235.93 159.36,242.02C159.47,243.97 160.7,248.23 161.57,250C167.05,261.16 182.27,262.34 193,259.98L207,256L207,274C207,276.04 207.24,279.77 205.98,281.42C204.46,283.41 199.4,283.85 197,284.25C187.15,285.85 181.91,286.11 172,286C145.64,285.69 125.6,270.6 125,243C101.12,243 80.13,235.56 64.3,217ZM683.999,77L683.999,113L721.999,113L721.999,135L683.999,135L683.999,190C684.019,204.4 686.289,219.82 703.999,220.91C710.889,221.33 715.639,218.71 721.999,217L721.999,240C704.729,242.33 680.789,246.9 664.999,236.87C653.909,229.82 650.149,216.48 649.999,204L649.999,135L632.999,135L632.999,113L649.999,113L649.999,77L683.999,77ZM87.15,184C92.08,202.44 105.06,216.53 125,216.99C145.6,217.45 158.42,205.98 164.92,187C168.57,176.36 169.13,164.16 169,153C168.68,125.81 156.33,97.3 125,98.15L121,98.15C83.05,104.59 79.08,153.75 87.15,184ZM498,225C498,227.14 498.23,230.71 496.98,232.49C495.43,234.7 488.69,236.47 486,237.28C476.6,240.11 463.78,242.88 454,243C421.28,243.38 388.7,235.9 378.74,200C376.4,191.53 375.9,182.74 376,174C376.2,157.05 381.96,139.28 394.17,127.17C414.91,106.6 461.94,103 483.99,123.17C500.359,138.16 500,161.66 500,182L410,182C410.47,187.75 411.71,193.7 414.04,199C424.07,221.79 454.65,223.35 475,215.77L498,204L498,225ZM529.999,211.69C539.619,216.97 551.969,220.87 562.999,221C569.489,221.07 578.599,220.45 583.979,216.49C589.709,212.28 592.059,205.89 586.719,200.21C581.619,194.78 568.259,192.86 560.999,191.4C538.449,186.86 516.639,180.57 516.009,153C515.309,121.88 546.639,110.04 572.999,110C584.429,109.98 595.969,110.76 606.999,114.04C609.499,114.78 616.559,116.77 618.009,118.7C619.259,120.37 618.999,123.96 618.999,126L618.999,148L604.999,140.26C594.289,134.75 580.119,130.18 567.999,132.67C565.409,133.2 561.299,134.23 558.999,135.44C551.749,139.25 546.949,146.73 553.389,153.79C558.179,159.03 571.079,161.17 577.999,162.42C599.519,166.32 624.369,172.19 624.989,199C625.089,203.63 624.779,207.53 623.429,212C615.399,238.65 582.499,243.04 558.999,243C549.289,242.98 536.359,240.82 526.999,238.14C524.319,237.37 517.609,235.48 515.989,233.3C514.739,231.62 514.999,228.06 514.999,226L514.999,203C520.549,205.12 524.829,208.85 529.999,211.69ZM266,113L266,182C266.03,187.56 267.41,200.33 270.09,205C277.29,217.58 293.54,216.2 305,211.38C308.43,209.95 314.15,207.21 315.98,203.9C317.2,201.69 317,198.48 317,196L317,113L351,113L351,240L317,240L317,222C308.92,227.94 301.22,234.5 292,238.69C270.38,248.51 242.48,243 234.77,218C230.99,205.71 232,190.82 232,178L232,113L266,113ZM458.62,138.14C449.54,128.22 428.41,128.81 419.1,138.14C412.82,144.38 410.4,154.37 410,163L466,163C465.92,154.68 464.44,144.57 458.62,138.14ZM570.999,290C569.649,295.52 566.429,299.56 562.999,304L582.999,304L590.789,302.98L603.209,285.4L611.999,285.4L632.999,290L624.999,304L691.999,304L691.999,323L617.999,323L617.999,334L682.999,334L682.999,349L617.999,349L617.999,359L683.999,359L683.999,374L617.999,374L617.999,385L693.999,385L693.999,404L612.999,404L612.999,414L695.999,414L695.999,435L659.999,435L638.999,436L661.999,444.31C675.089,448.97 693.419,454.44 706.999,457L692.999,482C663.769,476.12 638.959,463.89 612.999,450L612.999,484L581.999,484L581.999,450L556.999,462.69C542.159,469.51 512.889,479.76 497,482L488,458C510.639,451.44 534.139,446.55 554.999,435L498,435L498,414L581.999,414L581.999,404L514.999,404L514.999,352L504.999,357.68L498.58,352.99L487,339C506.069,324.23 529.099,304.2 540.999,283L570.999,290ZM389,285L389,322L474,322L474,349L397,349L419.17,378C438.51,399.42 459.39,415.23 484,430C480.58,435.95 469.07,452.04 464,456L433,433.57C414.49,418.17 403.8,405.52 389,387L389,424L421,424L421,450L389,450L389,485L357,485L357,450L324,450L324,424L357,424L357,387L332.91,414.96C319.54,428.69 295.91,447.95 279,457C274.22,451.78 264.79,440.59 263,434C271.85,429.68 284.4,419.55 292,413C309.55,397.88 325.39,380.66 339.12,362L348,349L273,349L273,322L357,322L357,285L389,285ZM728.999,348.69C742.229,341.52 762.259,327.68 773.999,318.2C781.179,312.39 788.459,306.06 794.409,299C796.529,296.48 802.999,287.59 805.319,286.57C807.599,285.58 823.389,285.99 826.999,286C837.649,286.02 836.959,289.35 844.089,297C848.469,301.7 853.119,306.24 857.999,310.42C874.139,324.25 886.329,332.59 904.999,342.69L930.999,355L915.999,381L881.999,364L881.999,375L760.999,375L760.999,363C748.759,369.55 737.219,377.39 723.999,382L709.999,358L728.999,348.69ZM987.999,287L987.999,332L1004,332L1004,355L987.999,355L987.999,410L1004,405L1005,412L1025,390L1005,390L1005,369L1151,369L1151,390L1080,390L1056.32,391.02L1050,399L1144,399C1144,417.32 1145.14,435.89 1142.08,454C1140.4,463.96 1137.52,473.4 1128,478.59C1119.22,483.36 1100.36,482 1090,482L1087,458C1079.86,465.12 1072.26,471.49 1064,477.28C1061.43,479.08 1057.28,482.53 1054,481.55C1051.22,480.72 1042.84,471.75 1039,469C1043.01,463.86 1051.72,457.6 1057,452.83C1066.69,444.07 1078.6,430.41 1085,419C1081.97,419 1076.68,418.63 1074.09,420.02C1071.35,421.5 1062.08,434.4 1058.83,438C1049.81,447.99 1039.69,457.18 1029,465.35L1014,475.55C1011.98,476.72 1009.43,478.28 1007,477.59C1003.83,476.68 995.169,466.03 992.999,463C1010.68,451.44 1030.88,436.46 1043,419L1033,419.93L1022,428.83L1004,442L996.999,433C978.809,439.31 958.729,446.77 939.999,451L936.399,433L935.659,425.43L941.999,422.35L958.999,419L958.999,355L939.999,355L939.999,332L958.999,332L958.999,287L987.999,287ZM1137,289L1137,360L1019,360L1019,289L1137,289ZM233,298L233,481L201,481L201,471L96,471L96,481L63,481L63,298L233,298ZM1046,307L1046,317L1109,317L1109,307L1046,307ZM801.999,331.83L780.999,350L859.999,350L838.999,331.72L820.999,313L801.999,331.83ZM546.999,323L546.999,334L586.999,334L586.999,323L546.999,323ZM96,324L96,370L201,370L201,324L96,324ZM1046,332L1046,342L1109,342L1109,332L1046,332ZM546.999,349L546.999,359L586.999,359L586.999,349L546.999,349ZM546.999,374L546.999,385L586.999,385L586.999,374L546.999,374ZM917.999,391L917.999,417L872.999,417C883.809,427.81 893.679,439.05 903.199,451C908.109,457.16 915.229,465.75 917.999,473L884.999,485C883.399,481.73 880.269,475.69 876.909,474.07C874.839,473.14 870.419,473.86 867.999,474.07L844.999,476.01L822.999,477.91L799.999,479.09L788.999,480L772.999,481L748.999,482L730.999,483L725.999,456L743.999,455.09L753.819,453.98L761.199,444L775.999,417L723.999,417L723.999,391L917.999,391ZM96,396L96,445L201,445L201,396L96,396ZM818.999,417L811.629,417.99L805.579,428L791.999,453L858.999,449L840.999,425L853.999,417L818.999,417ZM1106.94,431L1097.33,445L1087,458C1092.45,458 1104.62,458.93 1108.95,456.15C1112.95,453.57 1113.92,449.37 1114.74,445L1117,419C1111.33,420.86 1109.92,426.19 1106.94,431Z" style="fill:none;fill-rule:nonzero;stroke:black;stroke-width:1px;"/>
    </g>
    <g transform="matrix(1,0,0,1,68.5507,-23.4648)">
        <g transform="matrix(43,0,0,43,679.37,209.503)">
            <path d="M0.372,-0.278C0.372,-0.184 0.35,-0.112 0.307,-0.063C0.263,-0.013 0.201,0.012 0.118,0.012C0.081,0.012 0.047,0.006 0.016,-0.007L0.016,-0.155C0.043,-0.134 0.073,-0.124 0.107,-0.124C0.179,-0.124 0.215,-0.177 0.215,-0.284L0.215,-0.7L0.372,-0.7L0.372,-0.278Z" style="fill:rgb(230,230,230);fill-rule:nonzero;"/>
        </g>
        <g transform="matrix(43,0,0,43,698.099,209.503)">
            <path d="M0.481,-0L0.335,-0L0.335,-0.072L0.333,-0.072C0.299,-0.016 0.25,0.012 0.184,0.012C0.136,0.012 0.097,-0.002 0.07,-0.029C0.042,-0.057 0.028,-0.093 0.028,-0.139C0.028,-0.236 0.085,-0.292 0.2,-0.307L0.336,-0.325C0.336,-0.38 0.306,-0.407 0.247,-0.407C0.188,-0.407 0.131,-0.389 0.077,-0.354L0.077,-0.47C0.099,-0.481 0.128,-0.491 0.165,-0.5C0.203,-0.508 0.236,-0.512 0.267,-0.512C0.41,-0.512 0.481,-0.441 0.481,-0.299L0.481,-0ZM0.336,-0.203L0.336,-0.237L0.245,-0.225C0.195,-0.219 0.17,-0.196 0.17,-0.157C0.17,-0.14 0.176,-0.125 0.188,-0.114C0.2,-0.103 0.217,-0.097 0.238,-0.097C0.267,-0.097 0.29,-0.107 0.309,-0.127C0.327,-0.147 0.336,-0.173 0.336,-0.203Z" style="fill:rgb(230,230,230);fill-rule:nonzero;"/>
        </g>
        <g transform="matrix(43,0,0,43,721.237,209.503)">
            <path d="M0.221,-0.058L0.219,-0.058L0.219,0.23L0.065,0.23L0.065,-0.5L0.219,-0.5L0.219,-0.425L0.221,-0.425C0.259,-0.483 0.313,-0.512 0.382,-0.512C0.447,-0.512 0.497,-0.49 0.532,-0.446C0.567,-0.401 0.585,-0.341 0.585,-0.264C0.585,-0.181 0.564,-0.114 0.523,-0.063C0.482,-0.013 0.427,0.012 0.359,0.012C0.299,0.012 0.253,-0.011 0.221,-0.058ZM0.217,-0.263L0.217,-0.223C0.217,-0.189 0.226,-0.16 0.244,-0.139C0.262,-0.117 0.286,-0.106 0.316,-0.106C0.351,-0.106 0.378,-0.12 0.398,-0.147C0.417,-0.174 0.427,-0.212 0.427,-0.262C0.427,-0.35 0.393,-0.394 0.324,-0.394C0.293,-0.394 0.267,-0.382 0.247,-0.358C0.227,-0.334 0.217,-0.303 0.217,-0.263Z" style="fill:rgb(230,230,230);fill-rule:nonzero;"/>
        </g>
        <g transform="matrix(43,0,0,43,747.482,209.503)">
            <path d="M0.481,-0L0.335,-0L0.335,-0.072L0.333,-0.072C0.299,-0.016 0.25,0.012 0.184,0.012C0.136,0.012 0.097,-0.002 0.07,-0.029C0.042,-0.057 0.028,-0.093 0.028,-0.139C0.028,-0.236 0.085,-0.292 0.2,-0.307L0.336,-0.325C0.336,-0.38 0.306,-0.407 0.247,-0.407C0.188,-0.407 0.131,-0.389 0.077,-0.354L0.077,-0.47C0.099,-0.481 0.128,-0.491 0.165,-0.5C0.203,-0.508 0.236,-0.512 0.267,-0.512C0.41,-0.512 0.481,-0.441 0.481,-0.299L0.481,-0ZM0.336,-0.203L0.336,-0.237L0.245,-0.225C0.195,-0.219 0.17,-0.196 0.17,-0.157C0.17,-0.14 0.176,-0.125 0.188,-0.114C0.2,-0.103 0.217,-0.097 0.238,-0.097C0.267,-0.097 0.29,-0.107 0.309,-0.127C0.327,-0.147 0.336,-0.173 0.336,-0.203Z" style="fill:rgb(230,230,230);fill-rule:nonzero;"/>
        </g>
        <g transform="matrix(43,0,0,43,770.619,209.503)">
            <path d="M0.548,-0L0.394,-0L0.394,-0.278C0.394,-0.355 0.366,-0.394 0.311,-0.394C0.284,-0.394 0.262,-0.384 0.245,-0.363C0.228,-0.343 0.219,-0.317 0.219,-0.285L0.219,-0L0.065,-0L0.065,-0.5L0.219,-0.5L0.219,-0.421L0.221,-0.421C0.258,-0.482 0.312,-0.512 0.382,-0.512C0.493,-0.512 0.548,-0.444 0.548,-0.306L0.548,-0Z" style="fill:rgb(230,230,230);fill-rule:nonzero;"/>
        </g>
        <g transform="matrix(43,0,0,43,796.634,209.503)">
            <path d="M0.514,-0.206L0.188,-0.206C0.193,-0.133 0.239,-0.097 0.325,-0.097C0.38,-0.097 0.429,-0.11 0.47,-0.136L0.47,-0.025C0.424,-0 0.364,0.012 0.29,0.012C0.209,0.012 0.147,-0.01 0.102,-0.055C0.057,-0.1 0.035,-0.162 0.035,-0.242C0.035,-0.325 0.059,-0.391 0.107,-0.439C0.156,-0.488 0.215,-0.512 0.285,-0.512C0.358,-0.512 0.414,-0.491 0.454,-0.447C0.494,-0.404 0.514,-0.345 0.514,-0.271L0.514,-0.206ZM0.371,-0.301C0.371,-0.372 0.342,-0.408 0.284,-0.408C0.259,-0.408 0.238,-0.398 0.22,-0.377C0.202,-0.357 0.191,-0.331 0.187,-0.301L0.371,-0.301Z" style="fill:rgb(230,230,230);fill-rule:nonzero;"/>
        </g>
        <g transform="matrix(43,0,0,43,819.897,209.503)">
            <path d="M0.032,-0.013L0.032,-0.138C0.058,-0.123 0.083,-0.111 0.108,-0.104C0.133,-0.097 0.157,-0.093 0.18,-0.093C0.207,-0.093 0.229,-0.097 0.244,-0.104C0.26,-0.111 0.268,-0.123 0.268,-0.138C0.268,-0.148 0.264,-0.156 0.257,-0.163C0.25,-0.169 0.241,-0.175 0.23,-0.18C0.219,-0.185 0.206,-0.189 0.193,-0.193C0.18,-0.197 0.167,-0.201 0.154,-0.206C0.134,-0.214 0.117,-0.222 0.102,-0.23C0.087,-0.239 0.074,-0.249 0.064,-0.26C0.053,-0.272 0.046,-0.285 0.04,-0.3C0.035,-0.315 0.032,-0.333 0.032,-0.353C0.032,-0.381 0.038,-0.405 0.051,-0.425C0.063,-0.445 0.079,-0.462 0.099,-0.475C0.12,-0.488 0.143,-0.497 0.169,-0.503C0.195,-0.509 0.223,-0.512 0.251,-0.512C0.273,-0.512 0.296,-0.51 0.318,-0.507C0.341,-0.504 0.364,-0.499 0.386,-0.492L0.386,-0.373C0.366,-0.384 0.345,-0.393 0.323,-0.399C0.301,-0.404 0.279,-0.407 0.257,-0.407C0.247,-0.407 0.238,-0.406 0.229,-0.405C0.22,-0.403 0.212,-0.4 0.205,-0.397C0.198,-0.393 0.193,-0.389 0.189,-0.384C0.185,-0.378 0.183,-0.372 0.183,-0.365C0.183,-0.356 0.186,-0.348 0.192,-0.342C0.198,-0.335 0.205,-0.33 0.215,-0.325C0.224,-0.32 0.235,-0.316 0.246,-0.312C0.258,-0.309 0.269,-0.305 0.281,-0.301C0.301,-0.294 0.32,-0.286 0.336,-0.277C0.353,-0.269 0.367,-0.259 0.379,-0.248C0.391,-0.236 0.4,-0.223 0.406,-0.208C0.413,-0.192 0.416,-0.174 0.416,-0.153C0.416,-0.123 0.41,-0.098 0.397,-0.077C0.384,-0.056 0.367,-0.039 0.345,-0.026C0.324,-0.012 0.3,-0.003 0.272,0.003C0.244,0.009 0.215,0.012 0.185,0.012C0.13,0.012 0.079,0.004 0.032,-0.013Z" style="fill:rgb(230,230,230);fill-rule:nonzero;"/>
        </g>
        <g transform="matrix(43,0,0,43,838.815,209.503)">
            <path d="M0.514,-0.206L0.188,-0.206C0.193,-0.133 0.239,-0.097 0.325,-0.097C0.38,-0.097 0.429,-0.11 0.47,-0.136L0.47,-0.025C0.424,-0 0.364,0.012 0.29,0.012C0.209,0.012 0.147,-0.01 0.102,-0.055C0.057,-0.1 0.035,-0.162 0.035,-0.242C0.035,-0.325 0.059,-0.391 0.107,-0.439C0.156,-0.488 0.215,-0.512 0.285,-0.512C0.358,-0.512 0.414,-0.491 0.454,-0.447C0.494,-0.404 0.514,-0.345 0.514,-0.271L0.514,-0.206ZM0.371,-0.301C0.371,-0.372 0.342,-0.408 0.284,-0.408C0.259,-0.408 0.238,-0.398 0.22,-0.377C0.202,-0.357 0.191,-0.331 0.187,-0.301L0.371,-0.301Z" style="fill:rgb(230,230,230);fill-rule:nonzero;"/>
        </g>
        <g transform="matrix(43,0,0,43,679.37,265.503)">
            <path d="M0.048,-0.027L0.048,-0.183C0.076,-0.159 0.107,-0.142 0.14,-0.13C0.173,-0.118 0.207,-0.112 0.241,-0.112C0.261,-0.112 0.278,-0.114 0.293,-0.117C0.308,-0.121 0.32,-0.126 0.33,-0.132C0.34,-0.138 0.347,-0.146 0.352,-0.155C0.357,-0.163 0.359,-0.173 0.359,-0.183C0.359,-0.196 0.355,-0.208 0.348,-0.219C0.34,-0.23 0.329,-0.24 0.316,-0.249C0.302,-0.258 0.286,-0.267 0.268,-0.275C0.249,-0.284 0.229,-0.292 0.208,-0.301C0.153,-0.324 0.112,-0.352 0.085,-0.385C0.058,-0.418 0.045,-0.457 0.045,-0.504C0.045,-0.54 0.052,-0.572 0.067,-0.598C0.082,-0.624 0.101,-0.646 0.127,-0.663C0.152,-0.68 0.181,-0.692 0.214,-0.7C0.248,-0.708 0.283,-0.712 0.32,-0.712C0.356,-0.712 0.389,-0.71 0.417,-0.705C0.445,-0.701 0.471,-0.694 0.495,-0.685L0.495,-0.539C0.483,-0.547 0.47,-0.554 0.456,-0.561C0.442,-0.567 0.428,-0.572 0.414,-0.576C0.399,-0.58 0.384,-0.583 0.37,-0.585C0.355,-0.587 0.342,-0.588 0.329,-0.588C0.311,-0.588 0.294,-0.586 0.28,-0.583C0.265,-0.579 0.253,-0.575 0.243,-0.568C0.233,-0.562 0.225,-0.555 0.219,-0.546C0.214,-0.538 0.211,-0.528 0.211,-0.517C0.211,-0.505 0.214,-0.495 0.22,-0.486C0.226,-0.476 0.235,-0.468 0.247,-0.459C0.258,-0.451 0.272,-0.443 0.288,-0.435C0.304,-0.427 0.323,-0.419 0.343,-0.41C0.371,-0.398 0.396,-0.386 0.419,-0.373C0.441,-0.36 0.46,-0.345 0.476,-0.328C0.492,-0.312 0.504,-0.293 0.513,-0.271C0.521,-0.25 0.525,-0.225 0.525,-0.197C0.525,-0.158 0.518,-0.125 0.503,-0.098C0.488,-0.072 0.468,-0.05 0.443,-0.034C0.417,-0.017 0.388,-0.006 0.354,0.001C0.321,0.009 0.285,0.012 0.248,0.012C0.209,0.012 0.173,0.009 0.138,0.002C0.103,-0.004 0.073,-0.014 0.048,-0.027Z" style="fill:rgb(230,230,230);fill-rule:nonzero;"/>
        </g>
        <g transform="matrix(43,0,0,43,703.474,265.503)">
            <path d="M0.545,-0L0.391,-0L0.391,-0.284C0.391,-0.357 0.364,-0.394 0.311,-0.394C0.284,-0.394 0.262,-0.384 0.245,-0.363C0.228,-0.343 0.219,-0.317 0.219,-0.285L0.219,-0L0.065,-0L0.065,-0.74L0.219,-0.74L0.219,-0.426L0.221,-0.426C0.259,-0.483 0.31,-0.512 0.375,-0.512C0.488,-0.512 0.545,-0.444 0.545,-0.307L0.545,-0Z" style="fill:rgb(230,230,230);fill-rule:nonzero;"/>
        </g>
        <g transform="matrix(43,0,0,43,729.362,265.503)">
            <path d="M0.54,-0L0.386,-0L0.386,-0.076L0.384,-0.076C0.346,-0.017 0.295,0.012 0.231,0.012C0.115,0.012 0.057,-0.058 0.057,-0.198L0.057,-0.5L0.211,-0.5L0.211,-0.212C0.211,-0.141 0.239,-0.106 0.295,-0.106C0.323,-0.106 0.345,-0.116 0.361,-0.135C0.378,-0.154 0.386,-0.181 0.386,-0.214L0.386,-0.5L0.54,-0.5L0.54,-0Z" style="fill:rgb(230,230,230);fill-rule:nonzero;"/>
        </g>
        <g transform="matrix(43,0,0,43,755.376,265.503)">
            <path d="M0.566,-0L0.381,-0L0.221,-0.248L0.219,-0.248L0.219,-0L0.065,-0L0.065,-0.74L0.219,-0.74L0.219,-0.269L0.221,-0.269L0.37,-0.5L0.553,-0.5L0.374,-0.265L0.566,-0Z" style="fill:rgb(230,230,230);fill-rule:nonzero;"/>
        </g>
        <g transform="matrix(43,0,0,43,779.417,265.503)">
            <path d="M0.481,-0L0.335,-0L0.335,-0.072L0.333,-0.072C0.299,-0.016 0.25,0.012 0.184,0.012C0.136,0.012 0.097,-0.002 0.07,-0.029C0.042,-0.057 0.028,-0.093 0.028,-0.139C0.028,-0.236 0.085,-0.292 0.2,-0.307L0.336,-0.325C0.336,-0.38 0.306,-0.407 0.247,-0.407C0.188,-0.407 0.131,-0.389 0.077,-0.354L0.077,-0.47C0.099,-0.481 0.128,-0.491 0.165,-0.5C0.203,-0.508 0.236,-0.512 0.267,-0.512C0.41,-0.512 0.481,-0.441 0.481,-0.299L0.481,-0ZM0.336,-0.203L0.336,-0.237L0.245,-0.225C0.195,-0.219 0.17,-0.196 0.17,-0.157C0.17,-0.14 0.176,-0.125 0.188,-0.114C0.2,-0.103 0.217,-0.097 0.238,-0.097C0.267,-0.097 0.29,-0.107 0.309,-0.127C0.327,-0.147 0.336,-0.173 0.336,-0.203Z" style="fill:rgb(230,230,230);fill-rule:nonzero;"/>
        </g>
        <g transform="matrix(43,0,0,43,802.555,265.503)">
            <path d="M0.143,-0.579C0.117,-0.579 0.096,-0.587 0.079,-0.602C0.063,-0.618 0.054,-0.637 0.054,-0.659C0.054,-0.682 0.063,-0.701 0.079,-0.716C0.096,-0.73 0.117,-0.738 0.143,-0.738C0.169,-0.738 0.191,-0.73 0.207,-0.716C0.224,-0.701 0.232,-0.682 0.232,-0.659C0.232,-0.636 0.224,-0.617 0.207,-0.602C0.191,-0.587 0.169,-0.579 0.143,-0.579ZM0.219,-0L0.065,-0L0.065,-0.5L0.219,-0.5L0.219,-0Z" style="fill:rgb(230,230,230);fill-rule:nonzero;"/>
        </g>
        <g transform="matrix(43,0,0,43,814.774,265.503)">
            <path d="M0.143,-0.579C0.117,-0.579 0.096,-0.587 0.079,-0.602C0.063,-0.618 0.054,-0.637 0.054,-0.659C0.054,-0.682 0.063,-0.701 0.079,-0.716C0.096,-0.73 0.117,-0.738 0.143,-0.738C0.169,-0.738 0.191,-0.73 0.207,-0.716C0.224,-0.701 0.232,-0.682 0.232,-0.659C0.232,-0.636 0.224,-0.617 0.207,-0.602C0.191,-0.587 0.169,-0.579 0.143,-0.579ZM0.219,-0.009C0.219,0.065 0.201,0.124 0.165,0.168C0.129,0.213 0.077,0.235 0.009,0.235C-0.014,0.235 -0.038,0.23 -0.065,0.22L-0.065,0.099C-0.043,0.111 -0.024,0.117 -0.008,0.117C0.041,0.117 0.065,0.079 0.065,0.003L0.065,-0.5L0.219,-0.5L0.219,-0.009Z" style="fill:rgb(230,230,230);fill-rule:nonzero;"/>
        </g>
        <g transform="matrix(43,0,0,43,826.994,265.503)">
            <path d="M0.303,0.012C0.22,0.012 0.154,-0.011 0.107,-0.058C0.059,-0.105 0.035,-0.168 0.035,-0.248C0.035,-0.331 0.06,-0.395 0.109,-0.442C0.159,-0.489 0.226,-0.512 0.31,-0.512C0.393,-0.512 0.458,-0.489 0.505,-0.442C0.553,-0.395 0.576,-0.334 0.576,-0.257C0.576,-0.174 0.552,-0.108 0.503,-0.06C0.455,-0.012 0.388,0.012 0.303,0.012ZM0.307,-0.394C0.271,-0.394 0.242,-0.382 0.222,-0.356C0.202,-0.331 0.192,-0.296 0.192,-0.25C0.192,-0.154 0.231,-0.106 0.308,-0.106C0.382,-0.106 0.419,-0.155 0.419,-0.254C0.419,-0.347 0.382,-0.394 0.307,-0.394Z" style="fill:rgb(230,230,230);fill-rule:nonzero;"/>
        </g>
        <g transform="matrix(43,0,0,43,853.281,265.503)">
            <path d="M0.54,-0L0.386,-0L0.386,-0.076L0.384,-0.076C0.346,-0.017 0.295,0.012 0.231,0.012C0.115,0.012 0.057,-0.058 0.057,-0.198L0.057,-0.5L0.211,-0.5L0.211,-0.212C0.211,-0.141 0.239,-0.106 0.295,-0.106C0.323,-0.106 0.345,-0.116 0.361,-0.135C0.378,-0.154 0.386,-0.181 0.386,-0.214L0.386,-0.5L0.54,-0.5L0.54,-0Z" style="fill:rgb(230,230,230);fill-rule:nonzero;"/>
        </g>
    </g>
</svg>
